<svg width="18" height="18" viewBox="0 0 18 18" fill="none" xmlns="http://www.w3.org/2000/svg">
<path d="M9 16.5C9.98491 16.5 10.9602 16.306 11.8701 15.9291C12.7801 15.5522 13.6069 14.9997 14.3033 14.3033C14.9997 13.6069 15.5522 12.7801 15.9291 11.8701C16.306 10.9602 16.5 9.98491 16.5 9C16.5 7.01088 15.7098 5.10322 14.3033 3.6967C12.8968 2.29018 10.9891 1.5 9 1.5C8.01509 1.5 7.03982 1.69399 6.12987 2.0709C5.21993 2.44781 4.39314 3.00026 3.6967 3.6967C2.29018 5.10322 1.5 7.01088 1.5 9C1.5 10.9891 2.29018 12.8968 3.6967 14.3033C5.10322 15.7098 7.01088 16.5 9 16.5ZM5.25 10.5L9 6.75L12.75 10.5H5.25Z" fill="white"/>
</svg>
