<svg width="24" height="24" viewBox="0 0 24 24" fill="none" xmlns="http://www.w3.org/2000/svg">
<path d="M9 7.5H7.875C7.275 7.5 6.75 8.025 6.75 8.625C6.75 9.225 7.275 9.75 7.875 9.75C8.475 9.75 9 10.275 9 10.875C9 11.475 8.475 12 7.875 12H6.75" stroke="#808191" stroke-width="2" stroke-miterlimit="10" stroke-linecap="round" stroke-linejoin="round"/>
<path d="M11.25 12V8.625C11.25 8.025 11.775 7.5 12.375 7.5C12.975 7.5 13.5 8.025 13.5 8.625V12" stroke="#808191" stroke-width="2" stroke-miterlimit="10" stroke-linecap="round" stroke-linejoin="round"/>
<path d="M11.25 9.75H13.5" stroke="#808191" stroke-width="2" stroke-miterlimit="10" stroke-linecap="round" stroke-linejoin="round"/>
<path d="M15.75 7.5V12H18" stroke="#808191" stroke-width="2" stroke-miterlimit="10" stroke-linecap="round" stroke-linejoin="round"/>
<path d="M21.75 7.5H20.25V12H21.75" stroke="#808191" stroke-width="2" stroke-miterlimit="10" stroke-linecap="round" stroke-linejoin="round"/>
<path d="M21.75 9.75H20.25" stroke="#808191" stroke-width="2" stroke-miterlimit="10" stroke-linecap="round" stroke-linejoin="round"/>
<path d="M18.75 15L6 22.5L9.75 15H1.5L7.5 1.5H19.5L17.25 5.25" stroke="#808191" stroke-width="2" stroke-miterlimit="10" stroke-linecap="round" stroke-linejoin="round"/>
</svg>
