<svg width="18" height="18" viewBox="0 0 18 18" fill="none" xmlns="http://www.w3.org/2000/svg">
<path d="M11.1 6L12 6.9L6.9 12L6 11.1L11.1 6ZM3 3H15C15.8325 3 16.5 3.6675 16.5 4.5V7.5C15.675 7.5 15 8.175 15 9C15 9.8325 15.675 10.5 16.5 10.5V13.5C16.5 14.3325 15.8325 15 15 15H3C2.175 15 1.5 14.3325 1.5 13.5V10.5C2.3325 10.5 3 9.8325 3 9C3 8.175 2.3325 7.5 1.5 7.5V4.5C1.5 3.6675 2.175 3 3 3ZM3 4.5V6.405C3.93 6.945 4.5 7.9275 4.5 9C4.5 10.0725 3.93 11.0625 3 11.595V13.5H15V11.595C14.07 11.0625 13.5 10.0725 13.5 9C13.5 7.9275 14.07 6.945 15 6.405V4.5H3ZM7.125 6C7.7475 6 8.25 6.5025 8.25 7.125C8.25 7.7475 7.7475 8.25 7.125 8.25C6.5025 8.25 6 7.7475 6 7.125C6 6.5025 6.5025 6 7.125 6ZM10.875 9.75C11.4975 9.75 12 10.2525 12 10.875C12 11.4975 11.4975 12 10.875 12C10.2525 12 9.75 11.4975 9.75 10.875C9.75 10.2525 10.2525 9.75 10.875 9.75Z" fill="#808191"/>
</svg>
