<svg width="18" height="18" viewBox="0 0 18 18" fill="none" xmlns="http://www.w3.org/2000/svg">
<path d="M15 12V3H6V12H15ZM16.5 12C16.5 12.825 15.825 13.5 15 13.5H6C5.175 13.5 4.5 12.825 4.5 12V3C4.5 2.175 5.175 1.5 6 1.5H15C15.825 1.5 16.5 2.175 16.5 3V12ZM12 15V16.5H3C2.175 16.5 1.5 15.825 1.5 15V5.25H3V15H12ZM10.65 3.75C9.975 3.75 9.45 3.9 9.075 4.2C8.7 4.5 8.475 4.95 8.475 5.55H9.9C9.9 5.325 9.975 5.175 10.125 5.025C10.275 4.95 10.425 4.875 10.65 4.875C10.875 4.875 11.1 4.95 11.25 5.1C11.4 5.25 11.475 5.4 11.475 5.7C11.475 5.925 11.4 6.15 11.325 6.3C11.25 6.45 11.025 6.6 10.875 6.75C10.5 6.975 10.2 7.2 10.125 7.425C9.825 7.575 9.75 7.875 9.75 8.25H11.25C11.25 8.025 11.25 7.8 11.325 7.725C11.4 7.575 11.55 7.425 11.7 7.35C12 7.2 12.3 6.975 12.525 6.675C12.75 6.3 12.9 6 12.9 5.625C12.9 5.025 12.675 4.575 12.3 4.275C11.925 3.9 11.325 3.75 10.65 3.75ZM9.75 9V10.5H11.25V9H9.75Z" fill="#808191"/>
</svg>
