<svg width="32" height="30" viewBox="0 0 32 30" fill="none" xmlns="http://www.w3.org/2000/svg">
<path d="M30.166 15V26.3334C30.166 27.0848 29.8675 27.8055 29.3361 28.3368C28.8048 28.8682 28.0841 29.1667 27.3327 29.1667H4.66602C3.91457 29.1667 3.1939 28.8682 2.66255 28.3368C2.13119 27.8055 1.83268 27.0848 1.83268 26.3334V15C1.45696 15 1.09662 14.8508 0.830948 14.5851C0.565271 14.3194 0.416016 13.9591 0.416016 13.5834V9.33337C0.416016 8.58193 0.714527 7.86126 1.24588 7.32991C1.77723 6.79855 2.4979 6.50004 3.24935 6.50004H7.74018C7.58435 6.06087 7.49935 5.57921 7.49935 5.08337C7.49935 3.9562 7.94712 2.8752 8.74415 2.07817C9.54117 1.28114 10.6222 0.833374 11.7493 0.833374C13.166 0.833374 14.4127 1.54171 15.1918 2.59004V2.57587L15.9993 3.66671L16.8068 2.57587V2.59004C17.586 1.54171 18.8327 0.833374 20.2493 0.833374C21.3765 0.833374 22.4575 1.28114 23.2546 2.07817C24.0516 2.8752 24.4993 3.9562 24.4993 5.08337C24.4993 5.57921 24.4143 6.06087 24.2585 6.50004H28.7493C29.5008 6.50004 30.2215 6.79855 30.7528 7.32991C31.2842 7.86126 31.5827 8.58193 31.5827 9.33337V13.5834C31.5827 13.9591 31.4334 14.3194 31.1678 14.5851C30.9021 14.8508 30.5417 15 30.166 15ZM4.66602 26.3334H14.5827V15H4.66602V26.3334ZM27.3327 26.3334V15H17.416V26.3334H27.3327ZM11.7493 3.66671C11.3736 3.66671 11.0133 3.81596 10.7476 4.08164C10.4819 4.34732 10.3327 4.70765 10.3327 5.08337C10.3327 5.4591 10.4819 5.81943 10.7476 6.08511C11.0133 6.35079 11.3736 6.50004 11.7493 6.50004C12.1251 6.50004 12.4854 6.35079 12.7511 6.08511C13.0168 5.81943 13.166 5.4591 13.166 5.08337C13.166 4.70765 13.0168 4.34732 12.7511 4.08164C12.4854 3.81596 12.1251 3.66671 11.7493 3.66671ZM20.2493 3.66671C19.8736 3.66671 19.5133 3.81596 19.2476 4.08164C18.9819 4.34732 18.8327 4.70765 18.8327 5.08337C18.8327 5.4591 18.9819 5.81943 19.2476 6.08511C19.5133 6.35079 19.8736 6.50004 20.2493 6.50004C20.6251 6.50004 20.9854 6.35079 21.2511 6.08511C21.5168 5.81943 21.666 5.4591 21.666 5.08337C21.666 4.70765 21.5168 4.34732 21.2511 4.08164C20.9854 3.81596 20.6251 3.66671 20.2493 3.66671ZM3.24935 9.33337V12.1667H14.5827V9.33337H3.24935ZM17.416 9.33337V12.1667H28.7493V9.33337H17.416Z" fill="white"/>
</svg>
