<svg width="29" height="30" viewBox="0 0 29 30" fill="none" xmlns="http://www.w3.org/2000/svg">
<path d="M23.0827 23.5C23.8341 23.5 24.5548 23.7986 25.0862 24.3299C25.6175 24.8613 25.916 25.5819 25.916 26.3334C25.916 27.0848 25.6175 27.8055 25.0862 28.3368C24.5548 28.8682 23.8341 29.1667 23.0827 29.1667C21.5102 29.1667 20.2493 27.8917 20.2493 26.3334C20.2493 24.7609 21.5102 23.5 23.0827 23.5ZM0.416016 0.833374H5.04852L6.38018 3.66671H27.3327C27.7084 3.66671 28.0687 3.81596 28.3344 4.08164C28.6001 4.34732 28.7494 4.70765 28.7494 5.08337C28.7494 5.32421 28.6785 5.56504 28.5793 5.79171L23.5077 14.9575C23.026 15.8217 22.091 16.4167 21.0285 16.4167H10.4743L9.19935 18.7259L9.15685 18.8959C9.15685 18.9898 9.19416 19.0799 9.26058 19.1463C9.327 19.2127 9.41709 19.25 9.51102 19.25H25.916V22.0834H8.91602C7.34352 22.0834 6.08268 20.8084 6.08268 19.25C6.08268 18.7542 6.21018 18.2867 6.42268 17.89L8.34935 14.4192L3.24935 3.66671H0.416016V0.833374ZM8.91602 23.5C9.66746 23.5 10.3881 23.7986 10.9195 24.3299C11.4508 24.8613 11.7493 25.5819 11.7493 26.3334C11.7493 27.0848 11.4508 27.8055 10.9195 28.3368C10.3881 28.8682 9.66746 29.1667 8.91602 29.1667C7.34352 29.1667 6.08268 27.8917 6.08268 26.3334C6.08268 24.7609 7.34352 23.5 8.91602 23.5ZM21.666 13.5834L25.6044 6.50004H7.69768L11.041 13.5834H21.666Z" fill="white"/>
</svg>
