<svg width="30" height="24" viewBox="0 0 30 24" fill="none" xmlns="http://www.w3.org/2000/svg">
<path d="M18.9673 6.33329L20.6673 8.03329L11.034 17.6666L9.33398 15.9666L18.9673 6.33329ZM3.66732 0.666626H26.334C27.9065 0.666626 29.1673 1.92746 29.1673 3.49996V9.16663C27.609 9.16663 26.334 10.4416 26.334 12C26.334 13.5725 27.609 14.8333 29.1673 14.8333V20.5C29.1673 22.0725 27.9065 23.3333 26.334 23.3333H3.66732C2.10898 23.3333 0.833984 22.0725 0.833984 20.5V14.8333C2.40648 14.8333 3.66732 13.5725 3.66732 12C3.66732 10.4416 2.40648 9.16663 0.833984 9.16663V3.49996C0.833984 1.92746 2.10898 0.666626 3.66732 0.666626ZM3.66732 3.49996V7.09829C5.42398 8.11829 6.50065 9.97413 6.50065 12C6.50065 14.0258 5.42398 15.8958 3.66732 16.9016V20.5H26.334V16.9016C24.5773 15.8958 23.5007 14.0258 23.5007 12C23.5007 9.97413 24.5773 8.11829 26.334 7.09829V3.49996H3.66732ZM11.459 6.33329C12.6348 6.33329 13.584 7.28246 13.584 8.45829C13.584 9.63413 12.6348 10.5833 11.459 10.5833C10.2832 10.5833 9.33398 9.63413 9.33398 8.45829C9.33398 7.28246 10.2832 6.33329 11.459 6.33329ZM18.5423 13.4166C19.7182 13.4166 20.6673 14.3658 20.6673 15.5416C20.6673 16.7175 19.7182 17.6666 18.5423 17.6666C17.3665 17.6666 16.4173 16.7175 16.4173 15.5416C16.4173 14.3658 17.3665 13.4166 18.5423 13.4166Z" fill="white"/>
</svg>
